PathFileType	4	(X/Y/Z)	./resultDataOpenSim/trcMotMarkerGrf/sub10/qtm-14-05.trc
DataRate	CameraRate	NumFrames	NumMarkers	Units	OrigDataRate	OrigDataStartFrame	OrigNumFrames
250.000000	250.000000	13	24	m	250.000000	1	486
Frame#	Time	L.Toe.Tip			R.Toe.Tip			L.Ankle.Lat			R.Ankle.Lat			L.Ankle.Med			R.Ankle.Med			L.Heel			R.Heel			L.Knee.Lat			R.Knee.Lat			L.Knee.Med			R.Knee.Med			L.Thigh.Upper			R.Thigh.Upper			L.ASIS			R.ASIS			V.Sacral			L.Acromium			R.Acromium			C7			L.Elbow			R.Elbow			L.Wrist.Lat			R.Wrist.Lat
		X1	Y1	Z1	X2	Y2	Z2	X3	Y3	Z3	X4	Y4	Z4	X5	Y5	Z5	X6	Y6	Z6	X7	Y7	Z7	X8	Y8	Z8	X9	Y9	Z9	X10	Y10	Z10	X11	Y11	Z11	X12	Y12	Z12	X13	Y13	Z13	X14	Y14	Z14	X15	Y15	Z15	X16	Y16	Z16	X17	Y17	Z17	X18	Y18	Z18	X19	Y19	Z19	X20	Y20	Z20	X21	Y21	Z21	X22	Y22	Z22	X23	Y23	Z23	X24	Y24	Z24

1	0	-1.5394557	0.037442456	-0.21142571	-0.90318266	0.13090333	-0.02312696	-1.6697872	0.070137095	-0.23771137	-1.0371352	0.079161127	0.0040300268	-1.6537436	0.091796476	-0.15487756	-1.0267314	0.11938259	-0.074957874	NaN	NaN	NaN	-1.0622547	0.036978195	-0.049382344	-1.525906	0.4295556	-0.2654203	-1.2058604	0.44635065	0.032861367	-1.5281274	0.4077935	-0.14553422	-1.196419	0.4487379	-0.097204763	-1.4108459	0.80842365	-0.32214548	-1.3634528	0.82746423	0.063078935	-1.3371944	0.91155843	-0.26257398	-1.3061775	0.92821142	-0.023661317	-1.5186524	0.92995207	-0.11160558	-1.340791	1.3862028	-0.29256234	-1.3786293	1.3814975	0.023855888	-1.4378612	1.4166118	-0.14680958	-1.4479641	1.0570837	-0.36567259	-1.5482109	1.0780217	0.073090465	-1.2860645	0.8691545	-0.37446585	-1.4702488	0.86642936	0.170109
2	0.004	-1.5394066	0.037415341	-0.21143427	-0.89508896	0.13089411	-0.022849302	-1.6693232	0.071004112	-0.2375064	-1.0287775	0.07929711	0.005316924	-1.6538589	0.092517904	-0.15463382	-1.0190598	0.11935667	-0.073735935	NaN	NaN	NaN	-1.0544881	0.037122492	-0.047680945	-1.5215102	0.42907419	-0.26514527	-1.1980397	0.44619778	0.033722643	-1.524041	0.40721892	-0.1451006	-1.1901449	0.44807567	-0.096476029	-1.4055263	0.80749758	-0.32170298	-1.3563965	0.82629905	0.063612174	-1.3317313	0.9104261	-0.26245553	-1.3001972	0.92682984	-0.023494214	-1.5132275	0.92847765	-0.11062549	-1.3356311	1.3850259	-0.29203189	-1.3735486	1.3801709	0.024545022	-1.4329297	1.4154869	-0.14592139	-1.4427241	1.0558329	-0.36507047	-1.5429992	1.0762431	0.073052199	-1.2803597	0.86810739	-0.3740178	-1.4663441	0.86451823	0.17043846
3	0.008	-1.5393569	0.037393048	-0.21145063	-0.88732911	0.13060667	-0.022609411	-1.6688475	0.07192781	-0.2373345	-1.0207419	0.079314979	0.0065981224	-1.6538994	0.093287393	-0.15442042	-1.0115546	0.1191922	-0.072554699	NaN	NaN	NaN	-1.0470715	0.0371425	-0.045983525	-1.5171948	0.42857459	-0.26491544	-1.1901588	0.44612386	0.034542234	-1.5199024	0.40662764	-0.14471096	-1.1837646	0.44748558	-0.095736517	-1.4002771	0.80658875	-0.32138561	-1.348934	0.82531172	0.0643005	-1.3262729	0.90930398	-0.26236749	-1.2941469	0.92544177	-0.023305904	-1.5077707	0.92702177	-0.10965549	-1.3304852	1.3838616	-0.29148994	-1.3682999	1.3788569	0.025211999	-1.4280062	1.4143793	-0.14508999	-1.4374872	1.0546126	-0.36445585	-1.5376295	1.0746489	0.073281345	-1.274685	0.86705935	-0.37357754	-1.46237	0.86262868	0.17074224
4	0.012	-1.5393049	0.037377012	-0.21147798	-0.88008183	0.12992875	-0.022398322	-1.6683376	0.072947218	-0.23721338	-1.0131915	0.079156601	0.007881996	-1.6537535	0.094137613	-0.15426186	-1.0043991	0.11880567	-0.071426178	NaN	NaN	NaN	-1.0402024	0.036964249	-0.044282985	-1.5129394	0.42806615	-0.26474441	-1.182177	0.44616455	0.035290742	-1.5156644	0.40604314	-0.14437608	-1.1771811	0.44700582	-0.094995362	-1.3950962	0.80570525	-0.32118817	-1.340945	0.8245911	0.065177031	-1.3208023	0.90819646	-0.26230924	-1.2880128	0.92405845	-0.023081202	-1.5022465	0.92560352	-0.10868949	-1.3253269	1.3827087	-0.29093291	-1.3628269	1.3775757	0.025876431	-1.4230688	1.4133082	-0.1442901	-1.4322373	1.053444	-0.36378475	-1.5319316	1.0733622	0.073961873	-1.2690737	0.86601336	-0.37315502	-1.4582793	0.86077433	0.1710166
5	0.016	-1.5392481	0.037368721	-0.21151719	-0.87337474	0.12889585	-0.022161951	-1.6677753	0.074067355	-0.23715116	-1.0061708	0.078820716	0.0091724895	-1.6532414	0.095096848	-0.15417742	-0.99771735	0.11818157	-0.070340408	NaN	NaN	NaN	-1.0339291	0.036577179	-0.04256856	-1.5086796	0.42758747	-0.2646301	-1.1741217	0.44630359	0.035953164	-1.5113287	0.40549594	-0.1440718	-1.1703508	0.44665329	-0.094290231	-1.3899479	0.80485527	-0.32100472	-1.3329745	0.82404225	0.066071986	-1.3153036	0.90710693	-0.26226432	-1.2818063	0.92271451	-0.02281437	-1.4966436	0.92423969	-0.10771547	-1.32014	1.3815773	-0.29035901	-1.3571246	1.3763546	0.026589282	-1.4181033	1.4122905	-0.14348101	-1.4269663	1.0523373	-0.36301868	-1.5258778	1.0723363	0.075019904	-1.2635506	0.86498223	-0.37275424	-1.4541125	0.85897088	0.17126444
6	0.02	-1.5391828	0.037371483	-0.21156962	-0.86717033	0.12757306	-0.021832817	-1.667159	0.075279393	-0.23715931	-0.9996901	0.078323424	0.010464545	-1.6522203	0.096179019	-0.15417737	-0.99149349	0.11734212	-0.069277212	NaN	NaN	NaN	-1.0282259	0.03601292	-0.040843725	-1.5043774	0.42716983	-0.26456546	-1.1660641	0.4465013	0.036529448	-1.5069432	0.40497948	-0.14376593	-1.163274	0.44644187	-0.093657833	-1.3848074	0.80405695	-0.32075751	-1.3257674	0.82349268	0.066778568	-1.309767	0.90603947	-0.26222237	-1.2754973	0.92144601	-0.022508211	-1.4909683	0.92293937	-0.10672905	-1.3149381	1.3804989	-0.28976343	-1.3511869	1.3752139	0.027390114	-1.4131174	1.4113328	-0.14267737	-1.4216916	1.0512952	-0.36219392	-1.5196243	1.0713775	0.076157736	-1.2581072	0.86398368	-0.37236604	-1.4499634	0.85722277	0.17148202
7	0.024	-1.5391047	0.037386732	-0.21163743	-0.86143795	0.12599531	-0.021364198	-1.666494	0.07659221	-0.23725023	-0.9937466	0.077680279	0.011755738	-1.6507853	0.097370451	-0.15425218	-0.98566602	0.11631506	-0.068220364	NaN	NaN	NaN	-1.0230677	0.035313925	-0.03914801	-1.5000257	0.42680619	-0.2645273	-1.1580662	0.44673132	0.037031941	-1.5025278	0.4044726	-0.14345322	-1.155977	0.4463703	-0.093103561	-1.3796703	0.80333706	-0.32045077	-1.319209	0.82295519	0.067343028	-1.3041863	0.90500459	-0.26217548	-1.2690641	0.9202751	-0.022166415	-1.4852315	0.92170969	-0.10573966	-1.3097284	1.379502	-0.28914211	-1.3451371	1.3741563	0.028265465	-1.4081206	1.4104365	-0.14190784	-1.4164602	1.0503188	-0.36143035	-1.5133159	1.0703384	0.077161017	-1.2527223	0.86303272	-0.37197315	-1.4458693	0.85551273	0.17167487
8	0.028	-1.5390088	0.037412453	-0.21172331	-0.85615608	0.12417612	-0.020744726	-1.665777	0.07802333	-0.23742327	-0.98832301	0.076906449	0.013040961	-1.6493005	0.098651824	-0.15437006	-0.98024615	0.1151202	-0.067171938	NaN	NaN	NaN	-1.0184553	0.03451127	-0.037553315	-1.4956245	0.42647189	-0.26448506	-1.1501558	0.44699096	0.037476342	-1.4980465	0.40397804	-0.14315776	-1.1485071	0.44641884	-0.092609439	-1.3745362	0.80271763	-0.32010652	-1.3125854	0.82258793	0.067974624	-1.2985528	0.90402048	-0.26211099	-1.2625592	0.9192148	-0.021783377	-1.4794417	0.92055954	-0.10476979	-1.3044877	1.3785949	-0.28848749	-1.3392087	1.3731747	0.029158618	-1.4031048	1.4096067	-0.14115769	-1.4113082	1.0494143	-0.36081353	-1.5069551	1.0691921	0.078024977	-1.2473904	0.86213828	-0.3715597	-1.4417973	0.85382456	0.17186158
9	0.032	-1.5388909	0.037445547	-0.21182823	-0.851285	0.12213961	-0.019982054	-1.6649984	0.079570087	-0.23765709	-0.98340616	0.076013814	0.014303367	-1.6481444	0.10001073	-0.15449664	-0.97528522	0.11377651	-0.066141644	NaN	NaN	NaN	-1.0143874	0.03362078	-0.036121216	-1.4911669	0.42617213	-0.26442293	-1.1423432	0.44728496	0.037876475	-1.4934668	0.40352225	-0.14290156	-1.1409114	0.44657481	-0.092156936	-1.369399	0.8022028	-0.31970858	-1.3057725	0.82241982	0.068715115	-1.2928662	0.90310286	-0.26201704	-1.256069	0.91827694	-0.021346719	-1.4736031	0.91949903	-0.10384803	-1.299192	1.377781	-0.28778279	-1.3334981	1.3722713	0.030032056	-1.3980531	1.4088512	-0.14038202	-1.4062026	1.0485961	-0.36024551	-1.5005064	1.067949	0.078786843	-1.2421281	0.86130596	-0.37111681	-1.4377186	0.85216728	0.17205258
10	0.036	-1.5387513	0.03748408	-0.21194779	-0.84675097	0.11993693	-0.019076966	-1.6641496	0.081216513	-0.23791999	-0.9789827	0.075013466	0.015529118	-1.6473941	0.10143757	-0.15462801	-0.97078389	0.11230916	-0.065132234	NaN	NaN	NaN	-1.010806	0.032640936	-0.034833601	-1.4866373	0.42594063	-0.26433733	-1.1346513	0.44760407	0.038246013	-1.4887881	0.40313044	-0.14268211	-1.1332134	0.44684105	-0.091734074	-1.364247	0.80178011	-0.31923212	-1.2991745	0.82234678	0.069456075	-1.2871448	0.9022566	-0.26188798	-1.2496285	0.91747436	-0.02084498	-1.4677106	0.91854132	-0.10299684	-1.2938424	1.37707	-0.28700968	-1.3279205	1.371457	0.030905271	-1.3929525	1.4081771	-0.13954105	-1.4010595	1.0478833	-0.35950463	-1.4940137	1.0666368	0.079419561	-1.2369593	0.86054069	-0.37064013	-1.4335941	0.85057006	0.17224999
11	0.04	-1.5385928	0.037528362	-0.21207351	-0.84247923	0.11762192	-0.01802692	-1.6632227	0.082952822	-0.23819054	-0.97502318	0.073923256	0.016717073	-1.6468222	0.10293389	-0.15479894	-0.96668778	0.11074531	-0.064147553	NaN	NaN	NaN	-1.0076003	0.031562151	-0.033587172	-1.4820186	0.4257928	-0.26422336	-1.1271266	0.44791426	0.038599928	-1.4839957	0.40281216	-0.14249061	-1.1254456	0.44721497	-0.091328652	-1.3590626	0.80143486	-0.31868109	-1.2929422	0.82230535	0.070152727	-1.2814116	0.9014775	-0.2617174	-1.2432099	0.91681994	-0.020267286	-1.4617516	0.91769941	-0.10222893	-1.2884561	1.3764662	-0.28616204	-1.3224111	1.3707351	0.031819903	-1.3877958	1.4075851	-0.13861545	-1.3958204	1.0472929	-0.35845184	-1.4875633	1.0653347	0.079894867	-1.231896	0.85984587	-0.37012535	-1.4293314	0.84906329	0.17246772
12	0.044	-1.5384144	0.037581472	-0.21219985	-0.83847373	0.11519917	-0.016861918	-1.6622094	0.084776892	-0.23846909	-0.97149968	0.072755682	0.017861285	-1.6461788	0.10452694	-0.15504863	-0.96294006	0.10910809	-0.063198171	NaN	NaN	NaN	-1.0046923	0.030397751	-0.032310511	-1.4773037	0.42571684	-0.26408102	-1.1198125	0.44816952	0.038952014	-1.4790071	0.40257672	-0.14234648	-1.1176667	0.4476791	-0.090920708	-1.353828	0.80115928	-0.31806661	-1.2869165	0.82230529	0.070842385	-1.27567	0.90075759	-0.26149168	-1.2367842	0.91632219	-0.019607255	-1.4557156	0.91697803	-0.10154903	-1.2830599	1.3759637	-0.28525152	-1.3169863	1.3700978	0.032786878	-1.3825854	1.407065	-0.13761905	-1.3904791	1.0468311	-0.35709511	-1.4811703	1.0641373	0.080259114	-1.2269377	0.85922099	-0.36957271	-1.424856	0.84766124	0.1727298
13	0.048	-1.5382124	0.037647144	-0.21232597	-0.83482808	0.11261907	-0.015651404	-1.6611021	0.08669257	-0.23877254	-0.96840231	0.071505338	0.018938636	-1.6453639	0.10625414	-0.15538542	-0.95951488	0.10741159	-0.062295706	NaN	NaN	NaN	-1.0020834	0.029187167	-0.031053339	-1.4724812	0.42570953	-0.26391948	-1.1127109	0.44834322	0.039312205	-1.4737292	0.40244034	-0.14228461	-1.1099229	0.44821586	-0.090483279	-1.3485358	0.8009507	-0.31738011	-1.2809566	0.82236653	0.071561424	-1.2699016	0.90008959	-0.26120016	-1.2303626	0.91598084	-0.018870585	-1.4495994	0.91637598	-0.10094872	-1.2776877	1.3755583	-0.28429705	-1.3116402	1.3695421	0.033790012	-1.3773346	1.4066028	-0.13658971	-1.3850708	1.0464824	-0.35554215	-1.4747582	1.0630918	0.08061737	-1.2220839	0.85866237	-0.36899116	-1.4201863	0.84635961	0.1730457
